{"title":"Black RebelMotorcycle Club - Conscience Killer","uid":5489632,"size":167227743,"categoryP":"video","categoryS":"music_videos","magnet":"?xt=urn:btih:9a70f36f0cfb3ec84495d85dff1188e16ac614b4&amp;dn=Black+RebelMotorcycle+Club+-+Conscience+Killer&amp;tr=udp%3A%2F%2Ftracker.openbittorrent.com%3A80&amp;tr=udp%3A%2F%2Fopen.demonii.com%3A1337&amp;tr=udp%3A%2F%2Ftracker.coppersurfer.tk%3A6969&amp;tr=udp%3A%2F%2Fexodus.desync.com%3A6969","seeders":0,"leechers":1,"uploader":"tagfat37","files":4,"time":1270916339,"description":"BRMC - Conscience Killer &lt;a href=&quot;\nhttp://bayimg.com/oAldAaAcn&quot; rel=&quot;nofollow&quot; target=&quot;_NEW&quot;&gt;\nhttp://bayimg.com/oAldAaAcn&lt;/a&gt;\n\n\nVideo content: Rally Cars\n\n\nComplete name: BRMC - Conscience Killer.mp4\nFormat : MPEG-4\nFormat profile : Base Media / Version 2\nCodec ID : mp42\nFile size : 157 MiB\nDuration : 3mn 47s\nOverall bit rate : 5 805 Kbps\nEncoded date : UTC 2010-02-27 09:00:13\nTagged date : UTC 2010-02-27 09:00:13\n\nVideo\nID : 1\nFormat : AVC\nFormat/Info : Advanced Video Codec\nFormat profile : &lt;a class=&quot;__cf_email__&quot; href=&quot;/cdn-cgi/l/email-protection&quot; data-cfemail=&quot;b7fad6ded9f7fb849986&quot;&gt;[email&amp;#160;protected]&lt;/a&gt;&lt;script cf-hash='f9e31' type=&quot;text/javascript&quot;&gt;\n/* &lt;![CDATA[ */!function(){try{var t=&quot;currentScript&quot;in document?document.currentScript:function(){for(var t=document.getElementsByTagName(&quot;script&quot;),e=t.length;e--;)if(t[e].getAttribute(&quot;cf-hash&quot;))return t[e]}();if(t&amp;&amp;t.previousSibling){var e,r,n,i,c=t.previousSibling,a=c.getAttribute(&quot;data-cfemail&quot;);if(a){for(e=&quot;&quot;,r=parseInt(a.substr(0,2),16),n=2;a.length-n;n+=2)i=parseInt(a.substr(n,2),16)^r,e+=String.fromCharCode(i);e=document.createTextNode(e),c.parentNode.replaceChild(e,c)}}}catch(u){}}();/* ]]&gt; */&lt;/script&gt;\nFormat settings, CABAC : Yes\nFormat settings, ReFrames : 4 frames\nCodec ID : avc1\nCodec ID/Info : Advanced Video Coding\nDuration : 3mn 47s\nBit rate mode : Variable\nBit rate : 5 485 Kbps\nWidth : 720 pixels\nHeight : 576 pixels\nDisplay aspect ratio : 4:3\nFrame rate mode : Constant\nFrame rate : 25.000 fps\nStandard : PAL\nResolution : 24 bits\nColorimetry : 4:2:0\nScan type : Interlaced\nScan order : Bottom Field First\nBits/(Pixel*Frame) : 0.529\nStream size : 149 MiB (94%)\nLanguage : English\nEncoded date : UTC 2010-02-27 09:00:13\nTagged date : UTC 2010-02-27 09:00:13\n\nAudio\nID : 2\nFormat : AAC\nFormat/Info : Advanced Audio Codec\nFormat version : Version 4\nFormat profile : LC\nFormat settings, SBR : No\nCodec ID : 40\nDuration : 3mn 47s\nBit rate mode : Variable\nBit rate : 317 Kbps\nMaximum bit rate : 412 Kbps\nChannel(s) : 2 channels\nChannel positions : L R\nSampling rate : 48.0 KHz\nResolution : 16 bits\nStream size : 8.60 MiB (5%)\nLanguage : English\nEncoded date : UTC 2010-02-27 09:00:13\nTagged date : UTC 2010-02-27 09:00:13","torrent":{"xt":"urn:btih:9a70f36f0cfb3ec84495d85dff1188e16ac614b4","amp;dn":"Black+RebelMotorcycle+Club+-+Conscience+Killer","amp;tr":["udp%3A%2F%2Ftracker.openbittorrent.com%3A80","udp%3A%2F%2Fopen.demonii.com%3A1337","udp%3A%2F%2Ftracker.coppersurfer.tk%3A6969","udp%3A%2F%2Fexodus.desync.com%3A6969"],"infoHash":"9a70f36f0cfb3ec84495d85dff1188e16ac614b4","infoHashBuffer":{"type":"Buffer","data":[154,112,243,111,12,251,62,200,68,149,216,93,255,17,136,225,106,198,20,180]},"announce":[],"urlList":[]}}